<?xml version="1.0" encoding="utf-8"?>
<!-- Generator: Adobe Illustrator 20.1.0, SVG Export Plug-In . SVG Version: 6.00 Build 0)  -->
<svg version="1.1" xmlns="http://www.w3.org/2000/svg" xmlns:xlink="http://www.w3.org/1999/xlink" x="0px" y="0px"
	 viewBox="0 0 400 400" enable-background="new 0 0 400 400" xml:space="preserve">
<g id="Ebene_1">
	<rect fill="#FFFFFF" width="50" height="50"/>
	<rect x="50" fill="#999999" width="50" height="50"/>
	<rect x="100" fill="#FFFFFF" width="50" height="50"/>
	<rect x="150" fill="#999999" width="50" height="50"/>
	<rect x="200" fill="#FFFFFF" width="50" height="50"/>
	<rect x="250" fill="#999999" width="50" height="50"/>
	<rect x="300" fill="#FFFFFF" width="50" height="50"/>
	<rect x="350" fill="#999999" width="50" height="50"/>
	<rect x="50" y="50" transform="matrix(-1 -1.224647e-16 1.224647e-16 -1 150 150)" fill="#FFFFFF" width="50" height="50"/>
	<rect y="50" transform="matrix(-1 -1.224647e-16 1.224647e-16 -1 50 150)" fill="#999999" width="50" height="50"/>
	<rect x="100" y="50" fill="#999999" width="50" height="50"/>
	<rect x="150" y="50" fill="#FFFFFF" width="50" height="50"/>
	<rect x="250" y="50" transform="matrix(-1 -1.224647e-16 1.224647e-16 -1 550 150)" fill="#FFFFFF" width="50" height="50"/>
	<rect x="200" y="50" transform="matrix(-1 -1.224647e-16 1.224647e-16 -1 450 150)" fill="#999999" width="50" height="50"/>
	<rect x="300" y="50" fill="#999999" width="50" height="50"/>
	<rect x="350" y="50" fill="#FFFFFF" width="50" height="50"/>
	<rect y="100" fill="#FFFFFF" width="50" height="50"/>
	<rect x="50" y="100" fill="#999999" width="50" height="50"/>
	<rect x="100" y="100" fill="#FFFFFF" width="50" height="50"/>
	<rect x="150" y="100" fill="#999999" width="50" height="50"/>
	<rect x="200" y="100" fill="#FFFFFF" width="50" height="50"/>
	<rect x="250" y="100" fill="#999999" width="50" height="50"/>
	<rect x="300" y="100" fill="#FFFFFF" width="50" height="50"/>
	<rect x="350" y="100" fill="#999999" width="50" height="50"/>
	<rect x="50" y="150" transform="matrix(-1 -1.224647e-16 1.224647e-16 -1 150 350)" fill="#FFFFFF" width="50" height="50"/>
	<rect y="150" transform="matrix(-1 -1.224647e-16 1.224647e-16 -1 50 350)" fill="#999999" width="50" height="50"/>
	<rect x="100" y="150" fill="#999999" width="50" height="50"/>
	<rect x="150" y="150" fill="#FFFFFF" width="50" height="50"/>
	<rect x="250" y="150" transform="matrix(-1 -1.224647e-16 1.224647e-16 -1 550 350)" fill="#FFFFFF" width="50" height="50"/>
	<rect x="200" y="150" transform="matrix(-1 -1.224647e-16 1.224647e-16 -1 450 350)" fill="#999999" width="50" height="50"/>
	<rect x="300" y="150" fill="#999999" width="50" height="50"/>
	<rect x="350" y="150" fill="#FFFFFF" width="50" height="50"/>
	<rect y="200" fill="#FFFFFF" width="50" height="50"/>
	<rect x="50" y="200" fill="#999999" width="50" height="50"/>
	<rect x="100" y="200" fill="#FFFFFF" width="50" height="50"/>
	<rect x="150" y="200" fill="#999999" width="50" height="50"/>
	<rect x="200" y="200" fill="#FFFFFF" width="50" height="50"/>
	<rect x="250" y="200" fill="#999999" width="50" height="50"/>
	<rect x="300" y="200" fill="#FFFFFF" width="50" height="50"/>
	<rect x="350" y="200" fill="#999999" width="50" height="50"/>
	<rect x="50" y="250" transform="matrix(-1 -1.224647e-16 1.224647e-16 -1 150 550)" fill="#FFFFFF" width="50" height="50"/>
	<rect y="250" transform="matrix(-1 -1.224647e-16 1.224647e-16 -1 50 550)" fill="#999999" width="50" height="50"/>
	<rect x="100" y="250" fill="#999999" width="50" height="50"/>
	<rect x="150" y="250" fill="#FFFFFF" width="50" height="50"/>
	<rect x="250" y="250" transform="matrix(-1 -1.224647e-16 1.224647e-16 -1 550 550)" fill="#FFFFFF" width="50" height="50"/>
	<rect x="200" y="250" transform="matrix(-1 -1.224647e-16 1.224647e-16 -1 450 550)" fill="#999999" width="50" height="50"/>
	<rect x="300" y="250" fill="#999999" width="50" height="50"/>
	<rect x="350" y="250" fill="#FFFFFF" width="50" height="50"/>
	<rect y="300" fill="#FFFFFF" width="50" height="50"/>
	<rect x="50" y="300" fill="#999999" width="50" height="50"/>
	<rect x="100" y="300" fill="#FFFFFF" width="50" height="50"/>
	<rect x="150" y="300" fill="#999999" width="50" height="50"/>
	<rect x="200" y="300" fill="#FFFFFF" width="50" height="50"/>
	<rect x="250" y="300" fill="#999999" width="50" height="50"/>
	<rect x="300" y="300" fill="#FFFFFF" width="50" height="50"/>
	<rect x="350" y="300" fill="#999999" width="50" height="50"/>
	<rect x="50" y="350" transform="matrix(-1 -1.224647e-16 1.224647e-16 -1 150 750)" fill="#FFFFFF" width="50" height="50"/>
	<rect y="350" transform="matrix(-1 -1.224647e-16 1.224647e-16 -1 50 750)" fill="#999999" width="50" height="50"/>
	<rect x="100" y="350" fill="#999999" width="50" height="50"/>
	<rect x="150" y="350" fill="#FFFFFF" width="50" height="50"/>
	<rect x="250" y="350" transform="matrix(-1 -1.224647e-16 1.224647e-16 -1 550 750)" fill="#FFFFFF" width="50" height="50"/>
	<rect x="200" y="350" transform="matrix(-1 -1.224647e-16 1.224647e-16 -1 450 750)" fill="#999999" width="50" height="50"/>
	<rect x="300" y="350" fill="#999999" width="50" height="50"/>
	<rect x="350" y="350" fill="#FFFFFF" width="50" height="50"/>
	<rect fill="none" stroke="#000000" stroke-width="2" stroke-miterlimit="10" width="400" height="400"/>
</g>
<g id="Ebene_2">
	<line fill="none" stroke="#000000" stroke-width="4" stroke-miterlimit="10" x1="60.9" y1="260.9" x2="89.1" y2="289.1"/>
	<line fill="none" stroke="#000000" stroke-width="4" stroke-miterlimit="10" x1="60.9" y1="289.1" x2="89.1" y2="260.9"/>
	<line fill="none" stroke="#000000" stroke-width="4" stroke-miterlimit="10" x1="10.9" y1="110.9" x2="39.1" y2="139.1"/>
	<line fill="none" stroke="#000000" stroke-width="4" stroke-miterlimit="10" x1="10.9" y1="139.1" x2="39.1" y2="110.9"/>
	<line fill="none" stroke="#000000" stroke-width="4" stroke-miterlimit="10" x1="110.9" y1="158.6" x2="139.1" y2="186.9"/>
	<line fill="none" stroke="#000000" stroke-width="4" stroke-miterlimit="10" x1="110.9" y1="186.9" x2="139.1" y2="158.6"/>
	<line fill="none" stroke="#000000" stroke-width="4" stroke-miterlimit="10" x1="160.9" y1="60.9" x2="189.1" y2="89.1"/>
	<line fill="none" stroke="#000000" stroke-width="4" stroke-miterlimit="10" x1="160.9" y1="89.1" x2="189.1" y2="60.9"/>
	<line fill="none" stroke="#000000" stroke-width="4" stroke-miterlimit="10" x1="210.9" y1="360.9" x2="239.1" y2="389.1"/>
	<line fill="none" stroke="#000000" stroke-width="4" stroke-miterlimit="10" x1="210.9" y1="389.1" x2="239.1" y2="360.9"/>
	<line fill="none" stroke="#000000" stroke-width="4" stroke-miterlimit="10" x1="260.9" y1="210.9" x2="289.1" y2="239.1"/>
	<line fill="none" stroke="#000000" stroke-width="4" stroke-miterlimit="10" x1="260.9" y1="239.1" x2="289.1" y2="210.9"/>
	<line fill="none" stroke="#000000" stroke-width="4" stroke-miterlimit="10" x1="310.9" y1="310.9" x2="339.1" y2="339.1"/>
	<line fill="none" stroke="#000000" stroke-width="4" stroke-miterlimit="10" x1="310.9" y1="339.1" x2="339.1" y2="310.9"/>
</g>
</svg>
